<svg xmlns="http://www.w3.org/2000/svg" xmlns:xlink="http://www.w3.org/1999/xlink" width="53.18" height="60" viewBox="0 0 53.18 60"><defs><path id="qh78a" d="M551.09 1008.27v20.45"/><path id="qh78b" d="M557.91 1008.27v20.45"/><path id="qh78c" d="M564.73 1008.27v20.45"/><path id="qh78d" d="M565.6 985.42a6.4 6.4 0 0 0-2.15 3.74"/><path id="qh78e" d="M538.82 990.55c1.54 0 2.95.5 4.1 1.37"/><path id="qh78f" d="M540.18 1023.27v9.55l-1.85 3.7a2.73 2.73 0 0 0 .51 3.14l1.34 1.34h32.73l1.33-1.34c.83-.83 1.04-2.1.52-3.15l-1.85-3.7v-2.72h2.72c.79 0 1.54-.31 2.1-.87l4.65-4.65a9.55 9.55 0 0 0 2.8-6.75v-9.55a4.1 4.1 0 0 0-4.09-4.09h-8.18v-5.45c2.72-1.25 4.71-7 2.72-10.91-1.12-2.2-4.94-4.77-9.98-2.39a8.16 8.16 0 0 0-11.92-.9 8.17 8.17 0 0 0-6.72-3.53c-2.28 0-8.96 1.28-8.2 9.55a8.16 8.16 0 0 0-6.81 8.18c0 3.02 1.36 5.67 4.09 7.08v13.37a4.1 4.1 0 1 0 8.18 0v-13.63a6.82 6.82 0 0 1 6.82-6.82h21.82"/><path id="qh78g" d="M570.18 1035.55h-27.27"/><path id="qh78h" d="M572.91 1009.64v15h1.36l4.66-4.66c.51-.5.8-1.2.8-1.93V1011c0-.75-.61-1.36-1.37-1.36z"/></defs><g><g transform="translate(-532 -981)"><g><use fill="#fff" fill-opacity="0" stroke="#cfaa6b" stroke-miterlimit="50" stroke-width="2" xlink:href="#qh78a"/></g><g><use fill="#fff" fill-opacity="0" stroke="#cfaa6b" stroke-miterlimit="50" stroke-width="2" xlink:href="#qh78b"/></g><g><use fill="#fff" fill-opacity="0" stroke="#cfaa6b" stroke-miterlimit="50" stroke-width="2" xlink:href="#qh78c"/></g><g><use fill="#fff" fill-opacity="0" stroke="#cfaa6b" stroke-miterlimit="50" stroke-width="2" xlink:href="#qh78d"/></g><g><use fill="#fff" fill-opacity="0" stroke="#cfaa6b" stroke-miterlimit="50" stroke-width="2" xlink:href="#qh78e"/></g><g><use fill="#fff" fill-opacity="0" stroke="#cfaa6b" stroke-miterlimit="50" stroke-width="2" xlink:href="#qh78f"/></g><g><use fill="#fff" fill-opacity="0" stroke="#cfaa6b" stroke-miterlimit="50" stroke-width="2" xlink:href="#qh78g"/></g><g><use fill="#fff" fill-opacity="0" stroke="#cfaa6b" stroke-miterlimit="50" stroke-width="2" xlink:href="#qh78h"/></g></g></g></svg>