<svg xmlns="http://www.w3.org/2000/svg" xmlns:xlink="http://www.w3.org/1999/xlink" width="60" height="60" viewBox="0 0 60 60"><defs><path id="s4oaa" d="M857 1033h13"/><path id="s4oab" d="M878.46 981v11.74s-.33 8.15 0 7.83V1011l13.22 10.43v11.74l1.32 1.3v6.53h-37v-6.52l1.32-1.3v-11.75l13.22-10.43V990.13"/><path id="s4oac" d="M892 1033h-7"/><path id="s4oad" d="M915 1028h-13"/><path id="s4oae" d="M896.63 1036H916v-6.57l-1.3-1.32v-9.3c0-1.6-.7-3.1-1.93-4.1l-10.98-8.94v-6.57c0-5.08-4.05-9.2-9.04-9.2H885"/><path id="s4oaf" d="M886 1012l8-6.36v-5.1a2.6 2.6 0 0 0-2.67-2.54H878"/><path id="s4oag" d="M871 1016l-7 5"/><path id="s4oah" d="M895 1010l-4 4"/></defs><g><g transform="translate(-856 -981)"><g><use fill="#fff" fill-opacity="0" stroke="#cfaa6b" stroke-linecap="round" stroke-miterlimit="50" stroke-width="2" xlink:href="#s4oaa"/></g><g><use fill="#fff" fill-opacity="0" stroke="#cfaa6b" stroke-linecap="round" stroke-miterlimit="50" stroke-width="2" xlink:href="#s4oab"/></g><g><use fill="#fff" fill-opacity="0" stroke="#cfaa6b" stroke-linecap="round" stroke-miterlimit="50" stroke-width="2" xlink:href="#s4oac"/></g><g><use fill="#fff" fill-opacity="0" stroke="#cfaa6b" stroke-linecap="round" stroke-miterlimit="50" stroke-width="2" xlink:href="#s4oad"/></g><g><use fill="#fff" fill-opacity="0" stroke="#cfaa6b" stroke-linecap="round" stroke-miterlimit="50" stroke-width="2" xlink:href="#s4oae"/></g><g><use fill="#fff" fill-opacity="0" stroke="#cfaa6b" stroke-linecap="round" stroke-miterlimit="50" stroke-width="2" xlink:href="#s4oaf"/></g><g><use fill="#fff" fill-opacity="0" stroke="#cfaa6b" stroke-linecap="round" stroke-miterlimit="50" stroke-width="2" xlink:href="#s4oag"/></g><g><use fill="#fff" fill-opacity="0" stroke="#cfaa6b" stroke-linecap="round" stroke-miterlimit="50" stroke-width="2" xlink:href="#s4oah"/></g></g></g></svg>