<svg xmlns="http://www.w3.org/2000/svg" xmlns:xlink="http://www.w3.org/1999/xlink" width="26.09" height="58.98" viewBox="0 0 26.09 58.98"><defs><path id="u7dga" d="M733.08 989.83v10.3a7.83 7.83 0 0 1-3.72 6.66l-9.32 5.21"/><path id="u7dgb" d="M733.08 1009.39v2.6a7.83 7.83 0 0 1-3.72 6.67l-9.32 5.22v-9.13"/><path id="u7dgc" d="M733.08 1021.27v2.6a7.83 7.83 0 0 1-3.72 6.67l-9.32 5.22v-9.13"/><path id="u7dgd" d="M707 989.83v10.3a7.83 7.83 0 0 0 3.72 6.66l9.32 5.21"/><path id="u7dge" d="M707 1009.39v2.6a7.83 7.83 0 0 0 3.72 6.67l9.32 5.22v-9.13"/><path id="u7dgf" d="M707 1021.27v2.6a7.83 7.83 0 0 0 3.72 6.67l9.32 5.22v-9.13"/><path id="u7dgg" d="M714.82 1002.87c0 5.56 5.22 9.13 5.22 9.13s5.22-3.57 5.22-9.13c0-5.56-5.22-9.13-5.22-9.13s-5.22 3.57-5.22 9.13z"/><path id="u7dgh" d="M720.04 982v11.74"/><path id="u7dgi" d="M720.04 1012v28.98"/><path id="u7dgj" d="M713.52 985.91v7.83"/><path id="u7dgk" d="M726.57 985.91v7.83"/></defs><g><g transform="translate(-707 -982)"><g><use fill="#fff" fill-opacity="0" stroke="#ff2630" stroke-linecap="round" stroke-miterlimit="50" stroke-width="2" xlink:href="#u7dga"/></g><g><use fill="#fff" fill-opacity="0" stroke="#ff2630" stroke-linecap="round" stroke-miterlimit="50" stroke-width="2" xlink:href="#u7dgb"/></g><g><use fill="#fff" fill-opacity="0" stroke="#ff2630" stroke-linecap="round" stroke-miterlimit="50" stroke-width="2" xlink:href="#u7dgc"/></g><g><use fill="#fff" fill-opacity="0" stroke="#ff2630" stroke-linecap="round" stroke-miterlimit="50" stroke-width="2" xlink:href="#u7dgd"/></g><g><use fill="#fff" fill-opacity="0" stroke="#ff2630" stroke-linecap="round" stroke-miterlimit="50" stroke-width="2" xlink:href="#u7dge"/></g><g><use fill="#fff" fill-opacity="0" stroke="#ff2630" stroke-linecap="round" stroke-miterlimit="50" stroke-width="2" xlink:href="#u7dgf"/></g><g><use fill="#fff" fill-opacity="0" stroke="#ff2630" stroke-linecap="round" stroke-miterlimit="50" stroke-width="2" xlink:href="#u7dgg"/></g><g><use fill="#fff" fill-opacity="0" stroke="#ff2630" stroke-linecap="round" stroke-miterlimit="50" stroke-width="2" xlink:href="#u7dgh"/></g><g><use fill="#fff" fill-opacity="0" stroke="#ff2630" stroke-linecap="round" stroke-miterlimit="50" stroke-width="2" xlink:href="#u7dgi"/></g><g><use fill="#fff" fill-opacity="0" stroke="#ff2630" stroke-linecap="round" stroke-miterlimit="50" stroke-width="2" xlink:href="#u7dgj"/></g><g><use fill="#fff" fill-opacity="0" stroke="#ff2630" stroke-linecap="round" stroke-miterlimit="50" stroke-width="2" xlink:href="#u7dgk"/></g></g></g></svg>