<svg xmlns="http://www.w3.org/2000/svg" xmlns:xlink="http://www.w3.org/1999/xlink" width="63.89" height="50" viewBox="0 0 63.89 50"><defs><path id="42rza" d="M1037.44 1034.02a133.89 133.89 0 0 0 25 .02"/><path id="42rzb" d="M1031.89 988.95a71.45 71.45 0 0 0-13.89 3.9v36.24a71.61 71.61 0 0 0 13.89 3.93"/><path id="42rzc" d="M1062.44 987.98a133.89 133.89 0 0 0-25-.02"/><path id="42rzd" d="M1068 1033.05a71.45 71.45 0 0 0 13.89-3.9V992.9a71.52 71.52 0 0 0-13.89-3.92"/><path id="42rze" d="M1037.44 1020.48a335.55 335.55 0 0 0 25 .02"/><path id="42rzf" d="M1031.89 1001.9c-5.17.38-9.88.9-13.89 1.56v15.04c4.02.66 8.72 1.2 13.89 1.58"/><path id="42rzg" d="M1062.44 1001.52a329.35 329.35 0 0 0-25-.02"/><path id="42rzh" d="M1068 1020.1c5.15-.37 9.85-.9 13.89-1.55v-15.04a160.6 160.6 0 0 0-13.89-1.58"/><path id="42rzi" d="M1031.89 1036h5.56v-50h-5.56z"/><path id="42rzj" d="M1062.44 1036h5.56v-50h-5.56z"/></defs><g><g transform="translate(-1018 -986)"><g><use fill="#fff" fill-opacity="0" stroke="#cfaa6b" stroke-miterlimit="50" stroke-width="2" xlink:href="#42rza"/></g><g><use fill="#fff" fill-opacity="0" stroke="#cfaa6b" stroke-miterlimit="50" stroke-width="2" xlink:href="#42rzb"/></g><g><use fill="#fff" fill-opacity="0" stroke="#cfaa6b" stroke-miterlimit="50" stroke-width="2" xlink:href="#42rzc"/></g><g><use fill="#fff" fill-opacity="0" stroke="#cfaa6b" stroke-miterlimit="50" stroke-width="2" xlink:href="#42rzd"/></g><g><use fill="#fff" fill-opacity="0" stroke="#cfaa6b" stroke-miterlimit="50" stroke-width="2" xlink:href="#42rze"/></g><g><use fill="#fff" fill-opacity="0" stroke="#cfaa6b" stroke-miterlimit="50" stroke-width="2" xlink:href="#42rzf"/></g><g><use fill="#fff" fill-opacity="0" stroke="#cfaa6b" stroke-miterlimit="50" stroke-width="2" xlink:href="#42rzg"/></g><g><use fill="#fff" fill-opacity="0" stroke="#cfaa6b" stroke-miterlimit="50" stroke-width="2" xlink:href="#42rzh"/></g><g><use fill="#fff" fill-opacity="0" stroke="#cfaa6b" stroke-miterlimit="50" stroke-width="2" xlink:href="#42rzi"/></g><g><use fill="#fff" fill-opacity="0" stroke="#cfaa6b" stroke-miterlimit="50" stroke-width="2" xlink:href="#42rzj"/></g></g></g></svg>