<svg xmlns="http://www.w3.org/2000/svg" xmlns:xlink="http://www.w3.org/1999/xlink" width="53.18" height="60" viewBox="0 0 53.18 60"><defs><path id="nzn3a" d="M540.18 1023.27v9.55l-1.85 3.7a2.73 2.73 0 0 0 .51 3.14l1.34 1.34h32.73l1.33-1.34c.83-.83 1.04-2.1.52-3.15l-1.85-3.7v-2.72h2.72c.79 0 1.54-.31 2.1-.87l4.65-4.65a9.55 9.55 0 0 0 2.8-6.75v-9.55a4.1 4.1 0 0 0-4.09-4.09h-8.18v-5.45c2.72-1.25 4.71-7 2.72-10.91-1.12-2.2-4.94-4.77-9.98-2.39a8.16 8.16 0 0 0-11.92-.9 8.17 8.17 0 0 0-6.72-3.53c-2.28 0-8.96 1.28-8.2 9.55a8.16 8.16 0 0 0-6.81 8.18c0 3.02 1.36 5.67 4.09 7.08v13.37a4.1 4.1 0 1 0 8.18 0v-13.63a6.82 6.82 0 0 1 6.82-6.82h21.82"/></defs><g><g transform="translate(-532 -981)"><use fill="#fff" fill-opacity="0" stroke="#cfaa6b" stroke-miterlimit="50" stroke-width="2" xlink:href="#nzn3a"/></g></g></svg>