<svg xmlns="http://www.w3.org/2000/svg" xmlns:xlink="http://www.w3.org/1999/xlink"><defs><path id="bk8ra" d="M412.87 1009.7a22.17 22.17 0 1 1-44.35 0 22.17 22.17 0 0 1 44.35 0z"/><path id="bk8rb" d="M419.4 1009.7a28.7 28.7 0 1 1-57.4 0 28.7 28.7 0 0 1 57.4 0z"/><path id="bk8rc" d="M381.57 988.83v41.74"/><path id="bk8rd" d="M399.83 988.83v41.74"/><path id="bk8re" d="M390.7 981v6.52"/><path id="bk8rf" d="M412.87 1009.7h6.52"/><path id="bk8rg" d="M367.22 1009.7H362"/><path id="bk8rh" d="M390.7 1031.87v6.52"/><path id="bk8ri" d="M411.56 991.43l-3.91 3.91"/><path id="bk8rj" d="M369.83 991.43l3.91 3.91"/><path id="bk8rk" d="M372.43 1030.56l3.91-3.91"/><path id="bk8rl" d="M408.95 1030.56l-3.91-3.91"/><path id="bk8rm" d="M394.6 1020.13a3.91 3.91 0 1 1-7.82 0 3.91 3.91 0 0 1 7.83 0z"/><path id="bk8rn" d="M376.34 1034.48l-5.21 6.52h-7.83l5.22-13.04"/><path id="bk8ro" d="M405.04 1034.48l5.22 6.52h7.82l-5.21-13.04"/><path id="nzn3a" d="M540.18 1023.27v9.55l-1.85 3.7a2.73 2.73 0 0 0 .51 3.14l1.34 1.34h32.73l1.33-1.34c.83-.83 1.04-2.1.52-3.15l-1.85-3.7v-2.72h2.72c.79 0 1.54-.31 2.1-.87l4.65-4.65a9.55 9.55 0 0 0 2.8-6.75v-9.55a4.1 4.1 0 0 0-4.09-4.09h-8.18v-5.45c2.72-1.25 4.71-7 2.72-10.91-1.12-2.2-4.94-4.77-9.98-2.39a8.16 8.16 0 0 0-11.92-.9 8.17 8.17 0 0 0-6.72-3.53c-2.28 0-8.96 1.28-8.2 9.55a8.16 8.16 0 0 0-6.81 8.18c0 3.02 1.36 5.67 4.09 7.08v13.37a4.1 4.1 0 1 0 8.18 0v-13.63a6.82 6.82 0 0 1 6.82-6.82h21.82"/></defs><symbol id="group-6" viewbox="0 0 57.39 60"><g><g transform="translate(-362 -981)"><g><use fill="#fff" fill-opacity="0" stroke="#cfaa6b" stroke-miterlimit="50" stroke-width="2" xlink:href="#bk8ra"/></g><g><use fill="#fff" fill-opacity="0" stroke="#cfaa6b" stroke-miterlimit="50" stroke-width="2" xlink:href="#bk8rb"/></g><g><use fill="#fff" fill-opacity="0" stroke="#cfaa6b" stroke-miterlimit="50" stroke-width="2" xlink:href="#bk8rc"/></g><g><use fill="#fff" fill-opacity="0" stroke="#cfaa6b" stroke-miterlimit="50" stroke-width="2" xlink:href="#bk8rd"/></g><g><use fill="#fff" fill-opacity="0" stroke="#cfaa6b" stroke-miterlimit="50" stroke-width="2" xlink:href="#bk8re"/></g><g><use fill="#fff" fill-opacity="0" stroke="#cfaa6b" stroke-miterlimit="50" stroke-width="2" xlink:href="#bk8rf"/></g><g><use fill="#fff" fill-opacity="0" stroke="#cfaa6b" stroke-miterlimit="50" stroke-width="2" xlink:href="#bk8rg"/></g><g><use fill="#fff" fill-opacity="0" stroke="#cfaa6b" stroke-miterlimit="50" stroke-width="2" xlink:href="#bk8rh"/></g><g><use fill="#fff" fill-opacity="0" stroke="#cfaa6b" stroke-miterlimit="50" stroke-width="2" xlink:href="#bk8ri"/></g><g><use fill="#fff" fill-opacity="0" stroke="#cfaa6b" stroke-miterlimit="50" stroke-width="2" xlink:href="#bk8rj"/></g><g><use fill="#fff" fill-opacity="0" stroke="#cfaa6b" stroke-miterlimit="50" stroke-width="2" xlink:href="#bk8rk"/></g><g><use fill="#fff" fill-opacity="0" stroke="#cfaa6b" stroke-miterlimit="50" stroke-width="2" xlink:href="#bk8rl"/></g><g><use fill="#fff" fill-opacity="0" stroke="#cfaa6b" stroke-miterlimit="50" stroke-width="2" xlink:href="#bk8rm"/></g><g><use fill="#fff" fill-opacity="0" stroke="#cfaa6b" stroke-miterlimit="50" stroke-width="2" xlink:href="#bk8rn"/></g><g><use fill="#fff" fill-opacity="0" stroke="#cfaa6b" stroke-miterlimit="50" stroke-width="2" xlink:href="#bk8ro"/></g></g></g></symbol><symbol id="stroke-75" viewbox="0 0 53.18 60"><g><g transform="translate(-532 -981)"><use fill="#fff" fill-opacity="0" stroke="#cfaa6b" stroke-miterlimit="50" stroke-width="2" xlink:href="#nzn3a"/></g></g></symbol></svg>